<?xml version="1.0" encoding="utf-8"?>
<!-- Generator: Adobe Illustrator 23.0.1, SVG Export Plug-In . SVG Version: 6.00 Build 0)  -->
<svg version="1.1" id="Layer_1" xmlns="http://www.w3.org/2000/svg" xmlns:xlink="http://www.w3.org/1999/xlink" x="0px" y="0px"
	 viewBox="0 0 112.2 112.2" style="enable-background:new 0 0 112.2 112.2;" xml:space="preserve">
<style type="text/css">
	.st0{fill:#1D1D1B;}
	.st1{fill:#FFFFFF;}
</style>
<g>
	<path class="st0" d="M56.1,74.1c-9.9,0-17.9-8-17.9-17.9c0-9.9,8-17.9,17.9-17.9c9.9,0,17.9,8,17.9,17.9C74,66.1,66,74.1,56.1,74.1
		z M74,42.5c-2.3,0-4.1-1.8-4.1-4.1s1.8-4.1,4.1-4.1c2.3,0,4.1,1.8,4.1,4.1C78.2,40.6,76.3,42.5,74,42.5z"/>
</g>
<g>
	<path class="st1" d="M56.1,41.9c-7.9,0-14.3,6.4-14.3,14.3c0,7.9,6.4,14.3,14.3,14.3c7.9,0,14.3-6.4,14.3-14.3
		C70.4,48.4,64,41.9,56.1,41.9z"/>
</g>
<g>
	<path class="st0" d="M56.1,113.2C24.6,113.2-1,87.6-1,56.1S24.6-1,56.1-1c31.5,0,57.1,25.6,57.1,57.1S87.6,113.2,56.1,113.2z
		 M56.1,1C25.7,1,1,25.7,1,56.1c0,30.4,24.7,55.1,55.1,55.1s55.1-24.7,55.1-55.1C111.2,25.7,86.5,1,56.1,1z M72.8,91H39.4
		c-9.9,0-18-8.1-18-18V39.5c0-9.9,8.1-18,18-18h33.4c9.9,0,18,8.1,18,18V73C90.8,82.9,82.8,91,72.8,91z M40.2,25.1
		c-8.4,0-15.3,6.8-15.3,15.3v31.8c0,8.4,6.8,15.3,15.3,15.3H72c8.4,0,15.3-6.8,15.3-15.3V40.3c0-8.4-6.8-15.3-15.3-15.3H40.2z"/>
</g>
</svg>
