<?xml version="1.0" encoding="utf-8"?>
<!-- Generator: Adobe Illustrator 23.0.1, SVG Export Plug-In . SVG Version: 6.00 Build 0)  -->
<svg version="1.1" id="Capa_1" xmlns="http://www.w3.org/2000/svg" xmlns:xlink="http://www.w3.org/1999/xlink" x="0px" y="0px"
	 viewBox="0 0 507.5 507.5" style="enable-background:new 0 0 507.5 507.5;" xml:space="preserve">
<g>
	<g id="share-alt">
		<path d="M25.5,252.4c0,43.4,33.1,76.5,76.5,76.5c20.4,0,38.2-7.6,51-20.4l181.1,107.1c-2.6,7.6-2.6,12.8-2.6,17.9
			c0,40.8,33.1,74,74,74s73.9-33.2,73.9-74s-33.1-73.9-73.9-73.9c-20.4,0-38.2,7.6-51,20.4l-181-107.1c2.5-5.1,2.5-12.8,2.5-17.9
			s0-12.8-2.5-17.9l181-104.6c12.8,12.8,30.6,20.4,51,20.4c43.4,0,76.5-33.2,76.5-76.5S448.8,0,405.5,0S329,33.1,329,76.5
			c0,5.1,0,12.8,2.6,17.8L150.5,198.9c-12.8-12.8-30.6-20.4-51-20.4C56.1,178.5,25.5,209.1,25.5,252.4z"/>
	</g>
</g>
</svg>
