<?xml version="1.0" encoding="utf-8"?>
<!-- Generator: Adobe Illustrator 23.0.1, SVG Export Plug-In . SVG Version: 6.00 Build 0)  -->
<svg version="1.1" id="Layer_1" xmlns="http://www.w3.org/2000/svg" xmlns:xlink="http://www.w3.org/1999/xlink" x="0px" y="0px"
	 viewBox="0 0 112.2 112.2" style="enable-background:new 0 0 112.2 112.2;" xml:space="preserve">
<style type="text/css">
	.st0{fill:none;stroke:#1D1D1B;stroke-width:2;stroke-miterlimit:10;}
</style>
<path d="M32.4,86.5c3.7,0,6.8-3,6.8-6.7c0-3.7-3.1-6.8-6.8-6.8c-3.7,0-6.7,3.1-6.7,6.8C25.7,83.5,28.7,86.5,32.4,86.5z"/>
<path d="M27.4,63h3.3c10.1,0,18.5,8.4,18.5,18.5v3.3c0,0.9,0.7,1.7,1.7,1.7h3.3c0.9,0,1.7-0.7,1.7-1.7v-3.3
	c0-13.8-11.4-25.2-25.2-25.2h-3.3c-0.9,0-1.7,0.7-1.7,1.7v3.3C25.7,62.2,26.5,63,27.4,63z"/>
<path d="M27.4,49.7h3.3c17.4,0,31.8,14.4,31.8,31.8v3.3c0,0.9,0.7,1.7,1.7,1.7h3.3c0.9,0,1.7-0.7,1.7-1.7v-3.3
	C69.2,60.4,51.8,43,30.7,43h-3.3c-0.9,0-1.7,0.7-1.7,1.7V48C25.7,48.9,26.5,49.7,27.4,49.7z"/>
<path d="M30.7,29.7h-3.3c-0.9,0-1.7,0.7-1.7,1.7v3.3c0,0.9,0.7,1.7,1.7,1.7h3.3c24.8,0,45.1,20.3,45.1,45.1v3.3
	c0,0.9,0.7,1.7,1.7,1.7h3.3c0.9,0,1.7-0.7,1.7-1.7v-3.3C82.5,53,59.2,29.7,30.7,29.7z"/>
<g>
	<circle class="st0" cx="56.2" cy="56.2" r="56.1"/>
</g>
</svg>
