<svg xmlns="http://www.w3.org/2000/svg" width="93.465" height="67.096" viewBox="0 0 93.465 67.096">
  <g id="Pista_Previous" transform="translate(-805.236 -3038.051)">
    <path id="Path_1" data-name="Path 1" d="M1519.064,1040.545a26.988,26.988,0,0,0,6.42-7.875s2.385-5.895,1.464-9.176a105.115,105.115,0,0,0-4.174-12.322c-1.753-4.07-8.219-5.32-11.108-5.322s-3.443-3.188-3.978-4.871-.94-1.893-4.462-.62-10.069,4.694-12.558,6.832-6.654,8.652-9.765,7.675-4.44-2.259-7.266,0-21.587,16.613-25.635,19.942-5.92,3.719-4.835,5.737,2.8,2.678,3.677,5.787c.165.556-10.536,4.777-10.1,7.624,1.205,4.577-1.486,9.4,7.543,9.627s4.4.253,10.4-1.512,6.194-3.55,11.559-8.115,1.814-18.655,18.824-19.148,15.163,5.629,19.366,6.89S1514.777,1044.094,1519.064,1040.545Z" transform="translate(-630 2040)" fill="none" stroke="#fff" stroke-width="3"/>
  </g>
</svg>
