<svg xmlns="http://www.w3.org/2000/svg" width="95.624" height="69.207" viewBox="0 0 95.624 69.207">
  <g id="Pista_Previous" transform="translate(-1434.333 -996.657)">
    <path id="Path_1" data-name="Path 1" d="M1493.367,1047.87c4.286-3.549,24.871-20.32,24.871-20.32s3.858-2.3,2.174-4.786-4.66-4.207,0-6.546,9.474-3.578,7.641-8.34-2.1-4.79-2.639-6.474-.573-2.875-7.176-1.931-11.926,2.434-14.415,4.572-7.716,7.717-8.684,9.475.169,5.827-1.772,7.336-7.473,8.155-15.494,8.523-13.668-.8-17.109-4.858-7.335-1.9-10.525-1.758-6.973-.013-9.237,4.786-2.607,9.238-4.262,9.082-.733-1.083,0,7.615c.165.556,2.073,2.79,2.292,3.624,1.205,4.577,1.392,5.714,3.565,7.494,2.409,1.973,2.936,2.161,6.264,2.124s6.548-.93,6.322,2.852.047,6.746,5.581,3.921a140.565,140.565,0,0,0,17.109-10.956c2.444-2,3.28-4.375,7.483-3.115S1489.081,1051.419,1493.367,1047.87Z" transform="translate(0 -1)" fill="none" stroke="#fff" stroke-width="3"/>
  </g>
</svg>
